<svg xmlns="http://www.w3.org/2000/svg" width="111" height="24" viewBox="0 0 111 24"><style type="text/css">  
	.st0{fill:#0089D9;}
	.st1{fill:#C8C8C8;}
	.st2{fill:#39A6E6;}
	.st3{display:none;opacity:0.2;}
	.st4{display:inline;fill:#0089D9;}
</style><path class="st0" d="M12 10c-1.1 0-2 0.9-2 2s0.9 2 2 2 2-0.9 2-2S13.1 10 12 10zM7 10c-1.1 0-2 0.9-2 2s0.9 2 2 2 2-0.9 2-2S8.1 10 7 10zM12 0C5.4 0 0 5.4 0 12s5.4 12 12 12 12-5.4 12-12S18.6 0 12 0zM12 22C6.5 22 2 17.5 2 12S6.5 2 12 2s10 4.5 10 10S17.5 22 12 22zM17 10c-1.1 0-2 0.9-2 2s0.9 2 2 2 2-0.9 2-2S18.1 10 17 10z"/><path class="st1" d="M36 10c-1.1 0-2 0.9-2 2s0.9 2 2 2 2-0.9 2-2S37.1 10 36 10zM41 10c-1.1 0-2 0.9-2 2s0.9 2 2 2 2-0.9 2-2S42.1 10 41 10zM41 0c-6.6 0-12 5.4-12 12s5.4 12 12 12 12-5.4 12-12S47.6 0 41 0zM41 22c-5.5 0-10-4.5-10-10S35.5 2 41 2s10 4.5 10 10S46.5 22 41 22zM46 10c-1.1 0-2 0.9-2 2s0.9 2 2 2 2-0.9 2-2S47.1 10 46 10z"/><path class="st2" d="M65 10c-1.1 0-2 0.9-2 2s0.9 2 2 2 2-0.9 2-2S66.1 10 65 10zM70 10c-1.1 0-2 0.9-2 2s0.9 2 2 2 2-0.9 2-2S71.1 10 70 10zM70 0c-6.6 0-12 5.4-12 12s5.4 12 12 12 12-5.4 12-12S76.6 0 70 0zM70 22c-5.5 0-10-4.5-10-10S64.5 2 70 2s10 4.5 10 10S75.5 22 70 22zM75 10c-1.1 0-2 0.9-2 2s0.9 2 2 2 2-0.9 2-2S76.1 10 75 10z"/><path class="st0" d="M99 0c-6.6 0-12 5.4-12 12s5.4 12 12 12 12-5.4 12-12S105.6 0 99 0zM94 14c-1.1 0-2-0.9-2-2s0.9-2 2-2 2 0.9 2 2S95.1 14 94 14zM99 14c-1.1 0-2-0.9-2-2s0.9-2 2-2 2 0.9 2 2S100.1 14 99 14zM104 14c-1.1 0-2-0.9-2-2s0.9-2 2-2 2 0.9 2 2S105.1 14 104 14z"/><g class="st3"><rect x="87" class="st4" width="24" height="24"/><rect class="st4" width="24" height="24"/><rect x="29" class="st4" width="24" height="24"/><rect x="58" class="st4" width="24" height="24"/></g></svg>